<svg width="46" height="46" viewBox="0 0 46 46" fill="none" xmlns="http://www.w3.org/2000/svg">
<path fill-rule="evenodd" clip-rule="evenodd" d="M33.2958 16.6623C34.4581 14.0473 31.786 11.3752 29.171 12.5374L18.7537 17.1673C18.0468 17.4815 17.4815 18.0468 17.1673 18.7537L12.5374 29.171C11.3752 31.786 14.0472 34.4581 16.6623 33.2958L27.0796 28.666C27.7864 28.3518 28.3519 27.7864 28.666 27.0796L33.2958 16.6623ZM20.8121 20.812L28.3883 17.4449L25.0212 25.0212L17.445 28.3883L20.8121 20.812Z" fill="#2B7FFF"/>
<path fill-rule="evenodd" clip-rule="evenodd" d="M22.9167 45.8333C35.5731 45.8333 45.8333 35.5731 45.8333 22.9167C45.8333 10.2601 35.5731 0 22.9167 0C10.2601 0 0 10.2601 0 22.9167C0 35.5731 10.2601 45.8333 22.9167 45.8333ZM22.9167 41.6394C12.5764 41.6394 4.19387 33.2569 4.19387 22.9167C4.19387 12.5764 12.5764 4.19387 22.9167 4.19387C33.2569 4.19387 41.6394 12.5764 41.6394 22.9167C41.6394 33.2569 33.2569 41.6394 22.9167 41.6394Z" fill="#2B7FFF"/>
</svg>
