<svg width="50" height="50" viewBox="0 0 50 50" fill="none" xmlns="http://www.w3.org/2000/svg">
<path d="M12.2917 50C8.95833 50 5.83333 48.75 3.54167 46.4583C1.25 44.1667 0 41.0417 0 37.7083C0 34.375 1.25 31.25 3.54167 28.9583L11.4583 21.0417L15.625 25.2083L21.4583 19.375L24.375 22.2917L18.5417 28.125L21.875 31.4583L27.7083 25.625L30.625 28.5417L24.7917 34.375L28.9583 38.5417L21.25 46.4583C18.75 48.5417 15.625 50 12.2917 50ZM11.4583 26.875L6.66667 31.6667C5 33.3333 4.16667 35.4167 4.16667 37.5C4.16667 39.5833 5 41.6667 6.66667 43.3333C9.79167 46.4583 15.2083 46.4583 18.3333 43.3333L23.125 38.3333L11.4583 26.875ZM38.5417 28.9583L21.0417 11.4583L28.75 3.54167C31.0417 1.25 34.375 0 37.5 0C40.625 0 43.75 1.25 46.25 3.54167C48.75 5.83333 50 8.95833 50 12.2917C50 15.625 48.75 18.75 46.4583 21.0417L38.5417 28.9583ZM27.0833 11.4583L38.5417 22.9167L43.3333 18.125C45 16.4583 45.8333 14.5833 45.8333 12.2917C45.8333 10.2083 45 8.125 43.3333 6.45833C40.2083 3.33333 35 3.33333 31.6667 6.45833L27.0833 11.4583Z" fill="#2B7FFF"/>
</svg>
