<svg width="32" height="30" viewBox="0 0 32 30" fill="none" xmlns="http://www.w3.org/2000/svg">
<path d="M31.3144 21.4825L25.8418 12.0017L20.3693 2.52082C19.461 0.940672 17.8253 0 16.0042 0C14.1784 0 12.5473 0.940672 11.6345 2.52082L0.684652 21.4825C-0.228217 23.0627 -0.228217 24.9487 0.684652 26.5288C1.59752 28.109 3.22864 29.0496 5.05438 29.0496H26.9493C28.7751 29.0496 30.4062 28.109 31.3191 26.5288C32.2319 24.9487 32.2273 23.0627 31.3144 21.4825ZM28.9095 25.134C28.7129 25.4799 28.4276 25.767 28.0831 25.9658C27.7385 26.1645 27.3471 26.2677 26.9493 26.2647H5.05438C4.23418 26.2647 3.50204 25.843 3.09426 25.134C2.89396 24.79 2.78844 24.3991 2.78844 24.001C2.78844 23.603 2.89396 23.2121 3.09426 22.8681L14.0394 3.91097C14.2373 3.56531 14.5236 3.27845 14.8688 3.07978C15.214 2.88111 15.6059 2.77776 16.0042 2.78031C16.8244 2.78031 17.5565 3.20199 17.9643 3.91097L28.9095 22.8727C29.1098 23.2158 29.2153 23.606 29.2153 24.0034C29.2153 24.4007 29.1098 24.7909 28.9095 25.134ZM16.0876 17.6782C16.8568 17.6782 17.4777 17.0572 17.4777 16.288V7.81268C17.4777 7.04346 16.8568 6.42252 16.0876 6.42252C15.3184 6.42252 14.6974 7.04346 14.6974 7.81268V16.288C14.6974 17.0526 15.3184 17.6782 16.0876 17.6782ZM16.0876 19.578C14.855 19.578 13.8541 20.5789 13.8541 21.8116C13.8541 23.0442 14.855 24.0451 16.0876 24.0451C17.3202 24.0451 18.3211 23.0442 18.3211 21.8116C18.3211 20.5789 17.3202 19.578 16.0876 19.578ZM16.0876 22.3583C15.7864 22.3583 15.5408 22.1128 15.5408 21.8116C15.5408 21.5104 15.7864 21.2648 16.0876 21.2648C16.3888 21.2648 16.6344 21.5104 16.6344 21.8116C16.6344 22.1128 16.3888 22.3583 16.0876 22.3583Z" fill="#4A2121" stroke="#4A2121" stroke-width="0.00064"/>
</svg>
