<svg width="50" height="50" viewBox="0 0 50 50" fill="none" xmlns="http://www.w3.org/2000/svg">
<path d="M13.4618 31.2502H1.92338C0.861844 31.2502 0.000305176 32.1836 0.000305176 33.3336V47.9169C0.000305176 49.0669 0.861844 50.0002 1.92338 50.0002H13.4618C14.5234 50.0002 15.3849 49.0669 15.3849 47.9169V33.3336C15.3849 32.1836 14.5234 31.2502 13.4618 31.2502ZM13.4618 14.5836H1.92338C0.861844 14.5836 0.000305176 15.5169 0.000305176 16.6669V27.0836C0.000305176 28.2336 0.861844 29.1669 1.92338 29.1669H13.4618C14.5234 29.1669 15.3849 28.2336 15.3849 27.0836V16.6669C15.3849 15.5169 14.5234 14.5836 13.4618 14.5836ZM30.7695 0.000244141H19.2311C18.1695 0.000244141 17.308 0.933577 17.308 2.08358V18.7502C17.308 19.9002 18.1695 20.8336 19.2311 20.8336H30.7695C31.8311 20.8336 32.6926 19.9002 32.6926 18.7502V2.08358C32.6926 0.933577 31.8311 0.000244141 30.7695 0.000244141ZM30.7695 22.9169H19.2311C18.1695 22.9169 17.308 23.8502 17.308 25.0002V33.3336C17.308 34.4836 18.1695 35.4169 19.2311 35.4169H30.7695C31.8311 35.4169 32.6926 34.4836 32.6926 33.3336V25.0002C32.6926 23.8502 31.8311 22.9169 30.7695 22.9169ZM48.0772 33.3336H36.5388C35.4772 33.3336 34.6157 34.2669 34.6157 35.4169V47.9169C34.6157 49.0669 35.4772 50.0002 36.5388 50.0002H48.0772C49.1388 50.0002 50.0003 49.0669 50.0003 47.9169V35.4169C50.0003 34.2669 49.1388 33.3336 48.0772 33.3336ZM48.0772 0.000244141H36.5388C35.4772 0.000244141 34.6157 0.933577 34.6157 2.08358V12.5002C34.6157 13.6502 35.4772 14.5836 36.5388 14.5836H48.0772C49.1388 14.5836 50.0003 13.6502 50.0003 12.5002V2.08358C50.0003 0.933577 49.1388 0.000244141 48.0772 0.000244141ZM15.3849 1.04191C15.3849 1.61691 14.9542 2.08358 14.4234 2.08358H0.961844C0.431074 2.08358 0.000305176 1.61691 0.000305176 1.04191C0.000305176 0.466911 0.431074 0.000244141 0.961844 0.000244141H14.4234C14.9542 0.000244141 15.3849 0.466911 15.3849 1.04191ZM15.3849 5.20858C15.3849 5.78358 14.9542 6.25024 14.4234 6.25024H0.961844C0.431074 6.25024 0.000305176 5.78358 0.000305176 5.20858C0.000305176 4.63358 0.431074 4.16691 0.961844 4.16691H14.4234C14.9542 4.16691 15.3849 4.63358 15.3849 5.20858ZM15.3849 9.37524C15.3849 9.95024 14.9542 10.4169 14.4234 10.4169H0.961844C0.431074 10.4169 0.000305176 9.95024 0.000305176 9.37524C0.000305176 8.80024 0.431074 8.33358 0.961844 8.33358H14.4234C14.9542 8.33358 15.3849 8.80024 15.3849 9.37524ZM32.6926 40.6252C32.6926 41.2002 32.2618 41.6669 31.7311 41.6669H18.2695C17.7388 41.6669 17.308 41.2002 17.308 40.6252C17.308 40.0502 17.7388 39.5836 18.2695 39.5836H31.7311C32.2618 39.5836 32.6926 40.0502 32.6926 40.6252ZM32.6926 44.7919C32.6926 45.3669 32.2618 45.8336 31.7311 45.8336H18.2695C17.7388 45.8336 17.308 45.3669 17.308 44.7919C17.308 44.2169 17.7388 43.7502 18.2695 43.7502H31.7311C32.2618 43.7502 32.6926 44.2169 32.6926 44.7919ZM32.6926 48.9586C32.6926 49.5336 32.2618 50.0002 31.7311 50.0002H18.2695C17.7388 50.0002 17.308 49.5336 17.308 48.9586C17.308 48.3836 17.7388 47.9169 18.2695 47.9169H31.7311C32.2618 47.9169 32.6926 48.3836 32.6926 48.9586ZM50.0003 19.7919C50.0003 20.3669 49.5695 20.8336 49.0388 20.8336H35.5772C35.0465 20.8336 34.6157 20.3669 34.6157 19.7919C34.6157 19.2169 35.0465 18.7502 35.5772 18.7502H49.0388C49.5695 18.7502 50.0003 19.2169 50.0003 19.7919ZM50.0003 23.9586C50.0003 24.5336 49.5695 25.0002 49.0388 25.0002H35.5772C35.0465 25.0002 34.6157 24.5336 34.6157 23.9586C34.6157 23.3836 35.0465 22.9169 35.5772 22.9169H49.0388C49.5695 22.9169 50.0003 23.3836 50.0003 23.9586ZM50.0003 28.1252C50.0003 28.7002 49.5695 29.1669 49.0388 29.1669H35.5772C35.0465 29.1669 34.6157 28.7002 34.6157 28.1252C34.6157 27.5502 35.0465 27.0836 35.5772 27.0836H49.0388C49.5695 27.0836 50.0003 27.5502 50.0003 28.1252Z" fill="#2B7FFF" stroke="#2B7FFF" stroke-width="0.00064"/>
</svg>
