<svg width="55" height="55" viewBox="0 0 55 55" fill="none" xmlns="http://www.w3.org/2000/svg">
<path fill-rule="evenodd" clip-rule="evenodd" d="M16.9622 38.7917L6.99 44.74L8.70191 34.5286C4.55337 31.107 2.24 26.3669 2.24 21.1289C2.24 10.6968 11.4158 2.23999 25.99 2.23999C40.5642 2.23999 49.74 10.6968 49.74 21.1289C49.74 31.5609 40.5642 40.0178 25.99 40.0178C22.6892 40.0178 19.6653 39.584 16.9622 38.7917Z" stroke="#2B7FFF" stroke-width="4.48" stroke-linecap="round" stroke-linejoin="round"/>
<path d="M48.629 27.2397C50.954 29.5485 52.24 32.6072 52.24 35.9624C52.24 39.5735 50.7503 42.8413 48.0789 45.2001L49.1813 52.2397L42.7599 48.139C41.0193 48.6852 39.0721 48.9843 36.9465 48.9843C29.2914 48.9843 23.9492 45.1052 22.24 39.7721" stroke="#2B7FFF" stroke-width="4.48" stroke-linecap="round" stroke-linejoin="round"/>
</svg>
