<svg width="54" height="54" viewBox="0 0 54 54" fill="none" xmlns="http://www.w3.org/2000/svg">
<path d="M14.8378 2.00001C13.1515 1.99823 11.4813 2.32908 9.92291 2.97361C8.36455 3.61814 6.94861 4.5637 5.75616 5.75616C4.5637 6.94861 3.61814 8.36455 2.97361 9.92291C2.32908 11.4813 1.99823 13.1515 2.00001 14.8378V20.4459C2.22503 20.4326 2.45066 20.4326 2.67568 20.4459H8.08109V14.9054C8.09172 13.0988 8.81413 11.3691 10.0916 10.0916C11.3691 8.81413 13.0988 8.09172 14.9054 8.08109H20.4189V2.67568C20.4055 2.45066 20.4055 2.22503 20.4189 2.00001H14.8378ZM33.5 2.00001C33.5134 2.22503 33.5134 2.45066 33.5 2.67568V8.08109H39.1622C40.9581 8.10587 42.6726 8.83494 43.9363 10.1113C45.2 11.3877 45.912 13.1093 45.9189 14.9054V20.4189H51.3243C51.5493 20.4055 51.775 20.4055 52 20.4189V14.8378C52.0018 13.1515 51.6709 11.4813 51.0264 9.92291C50.3819 8.36455 49.4363 6.94861 48.2438 5.75616C47.0514 4.5637 45.6354 3.61814 44.0771 2.97361C42.5187 2.32908 40.8485 1.99823 39.1622 2.00001H33.5ZM27 16.5946C24.6001 16.6005 22.2763 17.4379 20.4244 18.9644C18.5724 20.4909 17.3068 22.612 16.8428 24.9666C16.3789 27.3213 16.7453 29.764 17.8798 31.8789C19.0143 33.9938 20.8467 35.6501 23.065 36.5659C25.2833 37.4818 27.7505 37.6005 30.0465 36.9019C32.3426 36.2032 34.3255 34.7305 35.6578 32.7343C36.9901 30.7381 37.5894 28.3419 37.3536 25.9535C37.1179 23.5652 36.0617 21.3323 34.3649 19.6351C33.3972 18.6693 32.2487 17.9037 30.985 17.382C29.7213 16.8603 28.3672 16.5927 27 16.5946ZM2.00001 33.527V39.1622C1.99823 40.8485 2.32908 42.5187 2.97361 44.0771C3.61814 45.6354 4.5637 47.0514 5.75616 48.2438C6.94861 49.4363 8.36455 50.3819 9.92291 51.0264C11.4813 51.6709 13.1515 52.0018 14.8378 52H20.4459C20.4326 51.775 20.4326 51.5493 20.4459 51.3243V45.9189H14.9054C13.1093 45.912 11.3877 45.2 10.1113 43.9363C8.83494 42.6726 8.10587 40.9581 8.08109 39.1622V33.5811H2.67568C2.45066 33.5945 2.22503 33.5945 2.00001 33.5811V33.527ZM43.8108 38.2568C42.7123 38.2568 41.6385 38.5825 40.7251 39.1928C39.8118 39.8031 39.0999 40.6705 38.6795 41.6854C38.2592 42.7002 38.1492 43.817 38.3635 44.8943C38.5778 45.9717 39.1067 46.9614 39.8835 47.7381C40.6602 48.5149 41.6499 49.0438 42.7273 49.2581C43.8046 49.4724 44.9214 49.3624 45.9362 48.9421C46.9511 48.5217 47.8185 47.8098 48.4288 46.8965C49.0391 45.9831 49.3649 44.9093 49.3649 43.8108C49.3649 42.3378 48.7797 40.9251 47.7381 39.8835C46.6965 38.8419 45.2838 38.2568 43.8108 38.2568Z" stroke="#2B7FFF" stroke-width="4" stroke-linecap="round" stroke-linejoin="round"/>
</svg>
